<?xml version="1.0" encoding="utf-8"?><svg xmlns="http://www.w3.org/2000/svg" xmlns:xlink="http://www.w3.org/1999/xlink" width="1440" height="789" preserveAspectRatio="xMidYMid" viewBox="0 0 1440 789" style="z-index:1;margin-right:-2px;display:block;background-repeat-y:initial;background-repeat-x:initial;background-color:rgb(241, 242, 243);animation-play-state:paused" ><g transform="translate(720,394.5) scale(1,1) translate(-720,-394.5)" style="transform:matrix(1, 0, 0, 1, 0, 0);animation-play-state:paused" ><linearGradient id="lg-0.9279441767188461" x1="0" x2="1" y1="0" y2="0" style="animation-play-state:paused" ><stop stop-color="#000638" offset="0" style="animation-play-state:paused" ></stop>

  
<stop stop-color="#000638" offset="1" style="animation-play-state:paused" ></stop></linearGradient>
<path d="M 0 0 L 0 769.055 Q 180 664.633 360 640.402 T 720 564.649 T 1080 312.367 T 1440 272.506 L 1440 0 Z" fill="url(#lg-0.9279441767188461)" opacity="0.4" style="opacity:0.4;animation-play-state:paused" ></path>
<path d="M 0 0 L 0 570.712 Q 180 504.312 360 462.109 T 720 455.342 T 1080 378.623 T 1440 270.428 L 1440 0 Z" fill="url(#lg-0.9279441767188461)" opacity="0.4" style="opacity:0.4;animation-play-state:paused" ></path>
<path d="M 0 0 L 0 617.159 Q 180 604.525 360 577.107 T 720 559.778 T 1080 322.236 T 1440 296.264 L 1440 0 Z" fill="url(#lg-0.9279441767188461)" opacity="0.4" style="opacity:0.4;animation-play-state:paused" ></path>
<path d="M 0 0 L 0 769.313 Q 180 453.454 360 420.704 T 720 584.03 T 1080 385.202 T 1440 260.625 L 1440 0 Z" fill="url(#lg-0.9279441767188461)" opacity="0.4" style="opacity:0.4;animation-play-state:paused" ></path>
<path d="M 0 0 L 0 680.786 Q 180 648.222 360 619.074 T 720 523.701 T 1080 274.029 T 1440 267.045 L 1440 0 Z" fill="url(#lg-0.9279441767188461)" opacity="0.4" style="opacity:0.4;animation-play-state:paused" ></path>
<path d="M 0 0 L 0 584.161 Q 180 639.146 360 605.531 T 720 497.578 T 1080 302.593 T 1440 255.823 L 1440 0 Z" fill="url(#lg-0.9279441767188461)" opacity="0.4" style="opacity:0.4;animation-play-state:paused" ></path>
<path d="M 0 0 L 0 641.62 Q 180 648.958 360 606.16 T 720 414.326 T 1080 268.124 T 1440 227.853 L 1440 0 Z" fill="url(#lg-0.9279441767188461)" opacity="0.4" style="opacity:0.4;animation-play-state:paused" ></path>
<path d="M 0 0 L 0 747.458 Q 180 497.068 360 454.299 T 720 555.357 T 1080 246.901 T 1440 273.86 L 1440 0 Z" fill="url(#lg-0.9279441767188461)" opacity="0.4" style="opacity:0.4;animation-play-state:paused" ></path>
<path d="M 0 0 L 0 666.722 Q 180 644.849 360 603.816 T 720 543.354 T 1080 404.789 T 1440 174.116 L 1440 0 Z" fill="url(#lg-0.9279441767188461)" opacity="0.4" style="opacity:0.4;animation-play-state:paused" ></path>
<path d="M 0 0 L 0 545.74 Q 180 722.015 360 674.003 T 720 494.288 T 1080 385.032 T 1440 326.441 L 1440 0 Z" fill="url(#lg-0.9279441767188461)" opacity="0.4" style="opacity:0.4;animation-play-state:paused" ></path></g></svg>