<?xml version="1.0" encoding="utf-8"?><svg xmlns="http://www.w3.org/2000/svg" xmlns:xlink="http://www.w3.org/1999/xlink" width="1440" height="789" preserveAspectRatio="xMidYMid" viewBox="0 0 1440 789" style="z-index:1;margin-right:-2px;display:block;background-repeat-y:initial;background-repeat-x:initial;background-color:rgb(22, 34, 103);animation-play-state:paused" ><g transform="translate(720,394.5) scale(1,1) translate(-720,-394.5)" style="transform:matrix(1, 0, 0, 1, 0, 0);animation-play-state:paused" ><linearGradient id="lg-0.286733409572155" x1="0" x2="1" y1="0" y2="0" style="animation-play-state:paused" ><stop stop-color="#000638" offset="0" style="animation-play-state:paused" ></stop>

  
<stop stop-color="#060d44" offset="1" style="animation-play-state:paused" ></stop></linearGradient>
<path d="M 0 0 L 0 695.354 Q 144 689.388 288 669.222 T 576 500.243 T 864 493.305 T 1152 342.398 T 1440 279.486 L 1440 0 Z" fill="url(#lg-0.286733409572155)" opacity="0.4" style="opacity:0.4;animation-play-state:paused" ></path>
<path d="M 0 0 L 0 688.152 Q 144 623.506 288 598.143 T 576 569.693 T 864 504.724 T 1152 345.826 T 1440 390.478 L 1440 0 Z" fill="url(#lg-0.286733409572155)" opacity="0.4" style="opacity:0.4;animation-play-state:paused" ></path>
<path d="M 0 0 L 0 762.11 Q 144 647.848 288 628.531 T 576 506.569 T 864 434.6 T 1152 429.127 T 1440 291.087 L 1440 0 Z" fill="url(#lg-0.286733409572155)" opacity="0.4" style="opacity:0.4;animation-play-state:paused" ></path>
<path d="M 0 0 L 0 703.746 Q 144 674.33 288 632.428 T 576 536.05 T 864 490.171 T 1152 381.968 T 1440 416.92 L 1440 0 Z" fill="url(#lg-0.286733409572155)" opacity="0.4" style="opacity:0.4;animation-play-state:paused" ></path>
<path d="M 0 0 L 0 741.991 Q 144 599.589 288 573.889 T 576 519.756 T 864 499.948 T 1152 447.674 T 1440 341.078 L 1440 0 Z" fill="url(#lg-0.286733409572155)" opacity="0.4" style="opacity:0.4;animation-play-state:paused" ></path></g></svg>