<?xml version="1.0" encoding="utf-8"?><svg xmlns="http://www.w3.org/2000/svg" xmlns:xlink="http://www.w3.org/1999/xlink" width="1440" height="789" preserveAspectRatio="xMidYMid" viewBox="0 0 1440 789" style="z-index:1;margin-right:-2px;display:block;background-repeat-y:initial;background-repeat-x:initial;background-color:rgb(22, 34, 103);animation-play-state:paused" ><g transform="translate(720,394.5) scale(1,1) translate(-720,-394.5)" style="transform:matrix(1, 0, 0, 1, 0, 0);animation-play-state:paused" ><linearGradient id="lg-0.2701022842767211" x1="0" x2="1" y1="0" y2="0" style="animation-play-state:paused" ><stop stop-color="#000638" offset="0" style="animation-play-state:paused" ></stop>

  
<stop stop-color="#000638" offset="1" style="animation-play-state:paused" ></stop></linearGradient>
<path d="M 0 0 L 0 772.115 Q 180 455.013 360 430.543 T 720 579.85 T 1080 238.597 T 1440 91.0882 L 1440 0 Z" fill="url(#lg-0.2701022842767211)" opacity="0.4" style="opacity:0.4;animation-play-state:paused" ></path>
<path d="M 0 0 L 0 601.292 Q 180 469.37 360 436.891 T 720 448.363 T 1080 301.722 T 1440 211.219 L 1440 0 Z" fill="url(#lg-0.2701022842767211)" opacity="0.4" style="opacity:0.4;animation-play-state:paused" ></path>
<path d="M 0 0 L 0 692.844 Q 180 676.077 360 645.76 T 720 445.741 T 1080 351.073 T 1440 274.929 L 1440 0 Z" fill="url(#lg-0.2701022842767211)" opacity="0.4" style="opacity:0.4;animation-play-state:paused" ></path>
<path d="M 0 0 L 0 684.542 Q 180 703.482 360 664.502 T 720 455.153 T 1080 183.889 T 1440 189.032 L 1440 0 Z" fill="url(#lg-0.2701022842767211)" opacity="0.4" style="opacity:0.4;animation-play-state:paused" ></path>
<path d="M 0 0 L 0 709.141 Q 180 571.673 360 539.101 T 720 464.252 T 1080 201.351 T 1440 229.611 L 1440 0 Z" fill="url(#lg-0.2701022842767211)" opacity="0.4" style="opacity:0.4;animation-play-state:paused" ></path>
<path d="M 0 0 L 0 696.949 Q 180 688.531 360 660.663 T 720 555.538 T 1080 357.731 T 1440 381.121 L 1440 0 Z" fill="url(#lg-0.2701022842767211)" opacity="0.4" style="opacity:0.4;animation-play-state:paused" ></path>
<path d="M 0 0 L 0 684.518 Q 180 621.861 360 590.993 T 720 469.651 T 1080 352.78 T 1440 207.213 L 1440 0 Z" fill="url(#lg-0.2701022842767211)" opacity="0.4" style="opacity:0.4;animation-play-state:paused" ></path>
<path d="M 0 0 L 0 687.302 Q 180 478.812 360 451.054 T 720 469.668 T 1080 462.769 T 1440 304.41 L 1440 0 Z" fill="url(#lg-0.2701022842767211)" opacity="0.4" style="opacity:0.4;animation-play-state:paused" ></path>
<path d="M 0 0 L 0 668.633 Q 180 670.591 360 648.942 T 720 420.052 T 1080 364.422 T 1440 318.22 L 1440 0 Z" fill="url(#lg-0.2701022842767211)" opacity="0.4" style="opacity:0.4;animation-play-state:paused" ></path>
<path d="M 0 0 L 0 583.27 Q 180 620.052 360 588.986 T 720 452.032 T 1080 354.628 T 1440 306.767 L 1440 0 Z" fill="url(#lg-0.2701022842767211)" opacity="0.4" style="opacity:0.4;animation-play-state:paused" ></path></g></svg>