<?xml version="1.0" encoding="utf-8"?><svg xmlns="http://www.w3.org/2000/svg" xmlns:xlink="http://www.w3.org/1999/xlink" width="1440" height="789" preserveAspectRatio="xMidYMid" viewBox="0 0 1440 789" style="z-index:1;margin-right:-2px;display:block;background-repeat-y:initial;background-repeat-x:initial;background-color:rgb(24, 35, 103);animation-play-state:paused" ><g transform="translate(720,394.5) scale(1,1) translate(-720,-394.5)" style="transform:matrix(1, 0, 0, 1, 0, 0);animation-play-state:paused" ><linearGradient id="lg-0.27062209986767516" x1="0" x2="1" y1="0" y2="0" style="animation-play-state:paused" ><stop stop-color="#000638" offset="0" style="animation-play-state:paused" ></stop>

  
<stop stop-color="#040d44" offset="1" style="animation-play-state:paused" ></stop></linearGradient>
<path d="M 0 0 L 0 606.961 Q 240 707.668 480 662.007 T 960 546.306 T 1440 335.135 L 1440 0 Z" fill="url(#lg-0.27062209986767516)" opacity="0.4" style="opacity:0.4;animation-play-state:paused" ></path>
<path d="M 0 0 L 0 540.71 Q 240 501.052 480 470.488 T 960 272.502 T 1440 171.96 L 1440 0 Z" fill="url(#lg-0.27062209986767516)" opacity="0.4" style="opacity:0.4;animation-play-state:paused" ></path>
<path d="M 0 0 L 0 777.781 Q 240 584.773 480 554.372 T 960 387.465 T 1440 260.592 L 1440 0 Z" fill="url(#lg-0.27062209986767516)" opacity="0.4" style="opacity:0.4;animation-play-state:paused" ></path>
<path d="M 0 0 L 0 659.534 Q 240 649.166 480 619.954 T 960 519.677 T 1440 275.955 L 1440 0 Z" fill="url(#lg-0.27062209986767516)" opacity="0.4" style="opacity:0.4;animation-play-state:paused" ></path>
<path d="M 0 0 L 0 666.398 Q 240 647.507 480 615.555 T 960 356.014 T 1440 193.077 L 1440 0 Z" fill="url(#lg-0.27062209986767516)" opacity="0.4" style="opacity:0.4;animation-play-state:paused" ></path>
<path d="M 0 0 L 0 650.734 Q 240 538.323 480 510.887 T 960 450.773 T 1440 358.443 L 1440 0 Z" fill="url(#lg-0.27062209986767516)" opacity="0.4" style="opacity:0.4;animation-play-state:paused" ></path>
<path d="M 0 0 L 0 608.357 Q 240 613.452 480 590.209 T 960 428.437 T 1440 146.762 L 1440 0 Z" fill="url(#lg-0.27062209986767516)" opacity="0.4" style="opacity:0.4;animation-play-state:paused" ></path>
<path d="M 0 0 L 0 530.531 Q 240 431.02 480 409.629 T 960 297.767 T 1440 193.868 L 1440 0 Z" fill="url(#lg-0.27062209986767516)" opacity="0.4" style="opacity:0.4;animation-play-state:paused" ></path>
<path d="M 0 0 L 0 589.86 Q 240 629.598 480 600.299 T 960 411.717 T 1440 228.55 L 1440 0 Z" fill="url(#lg-0.27062209986767516)" opacity="0.4" style="opacity:0.4;animation-play-state:paused" ></path>
<path d="M 0 0 L 0 657.976 Q 240 445.858 480 425.211 T 960 359.359 T 1440 182.984 L 1440 0 Z" fill="url(#lg-0.27062209986767516)" opacity="0.4" style="opacity:0.4;animation-play-state:paused" ></path></g></svg>